<svg width="623" height="202" viewBox="0 0 623 202" fill="none" xmlns="http://www.w3.org/2000/svg">
<path d="M169.768 152.591L170.661 153.041L170.662 153.039L169.768 152.591ZM139.124 185.978L139.644 186.833L139.647 186.83L139.124 185.978ZM48.6106 189.36L48.1529 190.249L48.1594 190.252L48.6106 189.36ZM16.2114 159.05L15.3533 159.563L15.3547 159.565L16.2114 159.05ZM43.9531 31.2241L44.4741 32.0777L44.4779 32.0753L43.9531 31.2241ZM135.439 27.6878L134.974 28.5733L134.981 28.5766L135.439 27.6878ZM167.122 58.5103L166.25 58.9993L166.254 59.0054L167.122 58.5103ZM114.283 74.5607L115.096 73.9786L114.283 74.5607ZM67.0514 75.6456L66.2263 75.0807L67.0514 75.6456ZM69.1649 142.751L68.375 143.365L68.3791 143.37L69.1649 142.751ZM120.479 132.248L119.54 131.905L120.479 132.248ZM178.542 105.031C179.122 122.451 175.892 138.147 168.874 152.142L170.662 153.039C177.845 138.713 181.131 122.681 180.541 104.964L178.542 105.031ZM168.875 152.14C161.854 166.055 151.767 177.044 138.601 185.126L139.647 186.83C153.133 178.553 163.474 167.284 170.661 153.041L168.875 152.14ZM138.605 185.123C125.435 193.125 110.523 197.411 93.8441 197.967L93.9107 199.966C110.905 199.4 126.157 195.027 139.644 186.833L138.605 185.123ZM93.8441 197.967C77.5708 198.509 62.65 195.338 49.0618 188.467L48.1594 190.252C62.0675 197.285 77.3247 200.518 93.9107 199.966L93.8441 197.967ZM49.0682 188.471C35.5638 181.52 24.9022 171.546 17.0681 158.534L15.3547 159.565C23.3804 172.896 34.3183 183.128 48.153 190.249L49.0682 188.471ZM17.0694 158.536C9.23248 145.444 5.02366 130.486 4.46242 113.639L2.46353 113.706C3.0349 130.857 7.32501 146.151 15.3533 159.563L17.0694 158.536ZM4.46242 113.639C3.87388 95.973 7.09531 79.9889 14.106 65.6652L12.3097 64.786C5.14041 79.4335 1.86526 95.7475 2.46353 113.706L4.46242 113.639ZM14.106 65.6652C21.1146 51.3458 31.2344 40.1577 44.4741 32.0777L43.4322 30.3705C29.8582 38.6545 19.481 50.1341 12.3097 64.786L14.106 65.6652ZM44.4779 32.0753C57.7186 23.9127 72.9506 19.5333 90.2013 18.9587L90.1347 16.9598C72.5739 17.5448 56.996 22.0087 43.4284 30.3728L44.4779 32.0753ZM90.2013 18.9587C106.802 18.4056 121.718 21.6181 134.974 28.5733L135.903 26.8022C122.309 19.6696 107.044 16.3964 90.1347 16.9598L90.2013 18.9587ZM134.981 28.5766C148.306 35.4443 158.725 45.5772 166.25 58.9993L167.995 58.0212C160.283 44.2663 149.58 33.8509 135.897 26.7989L134.981 28.5766ZM166.254 59.0054C173.86 72.3519 177.964 87.6854 178.542 105.031L180.541 104.964C179.953 87.3356 175.778 71.6776 167.991 58.0151L166.254 59.0054ZM124.712 108.29C124.229 93.7795 121.058 82.3076 115.096 73.9786L113.47 75.1428C119.121 83.0377 122.238 94.074 122.713 108.356L124.712 108.29ZM115.096 73.9786C109.103 65.6075 101.089 61.5416 91.1424 61.873L91.2089 63.8719C100.457 63.5638 107.848 67.2901 113.47 75.1428L115.096 73.9786ZM91.1424 61.873C80.3547 62.2324 72.0091 66.6341 66.2263 75.0807L67.8766 76.2106C73.275 68.3254 81.0121 64.2116 91.2089 63.8719L91.1424 61.873ZM66.2263 75.0807C60.4706 83.4878 57.9047 95.0904 58.3936 109.766L60.3925 109.7C59.9114 95.2576 62.4511 84.1353 67.8766 76.2106L66.2263 75.0807ZM58.3936 109.766C58.8718 124.12 62.1593 135.36 68.375 143.364L69.9547 142.138C64.0897 134.585 60.8627 123.813 60.3925 109.7L58.3936 109.766ZM68.3791 143.37C74.7003 151.399 83.069 155.258 93.387 154.914L93.3204 152.915C83.6299 153.238 75.8727 149.655 69.9506 142.133L68.3791 143.37ZM93.387 154.914C99.6979 154.704 105.334 152.658 110.263 148.784L109.027 147.212C104.435 150.821 99.2098 152.719 93.3204 152.915L93.387 154.914ZM110.263 148.784C115.196 144.908 118.905 139.491 121.419 132.59L119.54 131.905C117.13 138.523 113.616 143.606 109.027 147.212L110.263 148.784ZM121.419 132.59C123.935 125.683 125.022 117.574 124.712 108.29L122.713 108.356C123.016 117.453 121.947 125.295 119.54 131.905L121.419 132.59ZM303.035 175.021L303.781 175.688L303.786 175.682L303.035 175.021ZM280.139 187.998L280.415 188.959L280.423 188.957L280.139 187.998ZM200.044 188.834L199.045 188.867L199.07 189.624L199.806 189.805L200.044 188.834ZM198.971 156.625L199.299 155.681L197.923 155.203L197.972 156.659L198.971 156.625ZM250.981 159.656L251.398 160.565L251.408 160.56L250.981 159.656ZM251.042 143.165L250.588 144.056L250.602 144.063L250.616 144.07L251.042 143.165ZM209.232 141.993L208.232 142.027L208.266 143.026L209.265 142.993L209.232 141.993ZM208.309 114.299L208.276 113.299L207.277 113.333L207.31 114.332L208.309 114.299ZM247.635 110.546L247.11 109.695L247.635 110.546ZM246.883 95.3037L247.27 94.3816L246.883 95.3037ZM201.856 100.224L200.856 100.257L200.903 101.664L202.216 101.156L201.856 100.224ZM200.852 70.089L200.562 69.1318L199.827 69.3544L199.852 70.1223L200.852 70.089ZM290.101 69.0699L289.653 69.9644L289.662 69.9688L290.101 69.0699ZM297.932 113.512L298.641 114.217L298.647 114.211L297.932 113.512ZM274.483 124.552L274.289 123.571L273.456 123.737L273.484 124.586L274.483 124.552ZM274.495 124.918L273.496 124.952L273.527 125.88L274.455 125.918L274.495 124.918ZM300.409 132.849L299.792 133.636L299.799 133.641L300.409 132.849ZM309.092 152.224C309.403 161.553 307.097 168.893 302.284 174.361L303.786 175.682C309.015 169.741 311.414 161.861 311.091 152.157L309.092 152.224ZM302.289 174.355C297.431 179.793 289.988 184.043 279.855 187.039L280.423 188.957C290.77 185.897 298.592 181.495 303.781 175.688L302.289 174.355ZM279.862 187.037C269.725 189.953 257.006 191.676 241.683 192.187L241.749 194.186C257.171 193.672 270.067 191.936 280.415 188.959L279.862 187.037ZM241.683 192.187C227.704 192.653 213.905 191.211 200.283 187.863L199.806 189.805C213.605 193.197 227.587 194.658 241.749 194.186L241.683 192.187ZM201.044 188.801L199.971 156.592L197.972 156.659L199.045 188.867L201.044 188.801ZM198.643 157.57C210.928 161.837 222.516 163.803 233.397 163.441L233.33 161.442C222.739 161.795 211.398 159.883 199.299 155.681L198.643 157.57ZM233.397 163.441C241.705 163.164 247.753 162.235 251.398 160.565L250.564 158.747C247.311 160.238 241.614 161.166 233.33 161.442L233.397 163.441ZM251.408 160.56C253.298 159.668 254.767 158.487 255.743 156.986C256.722 155.48 257.158 153.721 257.092 151.758L255.093 151.824C255.147 153.44 254.791 154.781 254.066 155.896C253.337 157.017 252.191 157.979 250.554 158.752L251.408 160.56ZM257.092 151.758C257.018 149.521 256.533 147.572 255.588 145.957C254.636 144.333 253.251 143.101 251.469 142.261L250.616 144.07C252.06 144.751 253.129 145.717 253.862 146.968C254.6 148.228 255.027 149.832 255.093 151.824L257.092 151.758ZM251.496 142.275C249.766 141.392 247.36 140.809 244.348 140.475C241.321 140.139 237.613 140.047 233.233 140.193L233.3 142.192C237.623 142.048 241.229 142.141 244.127 142.462C247.041 142.786 249.171 143.334 250.588 144.056L251.496 142.275ZM233.233 140.193L209.199 140.994L209.265 142.993L233.3 142.192L233.233 140.193ZM210.231 141.96L209.309 114.265L207.31 114.332L208.232 142.027L210.231 141.96ZM208.343 115.298L232.865 114.481L232.799 112.482L208.276 113.299L208.343 115.298ZM232.865 114.481C239.957 114.245 245.126 113.267 248.16 111.397L247.11 109.695C244.559 111.268 239.859 112.247 232.799 112.482L232.865 114.481ZM248.16 111.397C251.321 109.448 252.767 106.256 252.628 102.074L250.629 102.141C250.75 105.767 249.534 108.2 247.11 109.695L248.16 111.397ZM252.628 102.074C252.569 100.289 252.101 98.7132 251.181 97.3944C250.262 96.0767 248.937 95.0815 247.27 94.3816L246.496 96.2258C247.884 96.8084 248.878 97.5884 249.541 98.5386C250.203 99.4877 250.58 100.672 250.629 102.141L252.628 102.074ZM247.27 94.3816C244.002 93.01 238.83 92.4951 231.896 92.7261L231.963 94.725C238.855 94.4953 243.653 95.0326 246.496 96.2258L247.27 94.3816ZM231.896 92.7261C222.09 93.0528 211.955 95.2467 201.495 99.2909L202.216 101.156C212.497 97.1813 222.411 95.0432 231.963 94.725L231.896 92.7261ZM202.855 100.19L201.851 70.0557L199.852 70.1223L200.856 100.257L202.855 100.19ZM201.141 71.0461C215.577 66.6768 229.578 64.2699 243.147 63.8179L243.08 61.819C229.32 62.2774 215.147 64.7175 200.562 69.1318L201.141 71.0461ZM243.147 63.8179C264.667 63.101 280.117 65.1957 289.653 69.9643L290.548 68.1755C280.543 63.1727 264.668 61.0998 243.08 61.819L243.147 63.8179ZM289.662 69.9688C294.438 72.2966 298.028 75.46 300.478 79.4484C302.931 83.441 304.276 88.3171 304.469 94.1181L306.468 94.0515C306.266 87.9776 304.852 82.747 302.182 78.4014C299.51 74.0515 295.613 70.6449 290.539 68.171L289.662 69.9688ZM304.469 94.1181C304.712 101.41 302.302 107.621 297.218 112.812L298.647 114.211C304.115 108.628 306.729 101.888 306.468 94.0515L304.469 94.1181ZM297.224 112.806C292.132 117.924 284.525 121.54 274.289 123.571L274.678 125.533C285.15 123.455 293.176 119.71 298.641 114.217L297.224 112.806ZM273.484 124.586L273.496 124.952L275.495 124.885L275.483 124.519L273.484 124.586ZM274.455 125.918C285.418 126.357 293.826 128.967 299.792 133.636L301.025 132.062C294.618 127.047 285.75 124.369 274.536 123.919L274.455 125.918ZM299.799 133.641C305.735 138.211 308.83 144.374 309.092 152.224L311.091 152.157C310.81 143.74 307.451 137.008 301.019 132.057L299.799 133.641ZM450.744 169.001L450.034 168.297L450.032 168.299L450.744 169.001ZM344.374 173.033L343.715 173.786L343.72 173.79L344.374 173.033ZM356.226 66.867L356.684 67.7559L356.226 66.867ZM432.612 64.6887L432.192 65.5963L432.195 65.5975L432.612 64.6887ZM458.378 86.548L457.537 87.0887L457.541 87.0939L458.378 86.548ZM467.244 118.741C467.939 139.591 462.17 156.068 450.034 168.297L451.453 169.706C464.054 157.008 469.952 139.956 469.243 118.675L467.244 118.741ZM450.032 168.299C437.974 180.526 420.677 187.079 397.997 187.834L398.063 189.833C421.093 189.066 438.939 182.397 451.456 169.703L450.032 168.299ZM397.997 187.834C375.474 188.585 357.862 183.355 345.027 172.276L343.72 173.79C357.042 185.29 375.201 190.595 398.063 189.833L397.997 187.834ZM345.032 172.281C332.281 161.125 325.522 145.392 324.841 124.951L322.842 125.018C323.538 145.894 330.466 162.195 343.715 173.786L345.032 172.281ZM324.841 124.951C324.404 111.847 326.96 100.426 332.469 90.6519L330.726 89.6699C325.01 99.8118 322.395 111.607 322.842 125.018L324.841 124.951ZM332.469 90.6519C337.979 80.875 346.039 73.2436 356.684 67.7559L355.768 65.9782C344.799 71.6329 336.441 79.5308 330.726 89.6699L332.469 90.6519ZM356.684 67.7559C367.338 62.2635 379.749 59.2671 393.942 58.7943L393.876 56.7954C379.439 57.2763 366.728 60.328 355.768 65.9782L356.684 67.7559ZM393.942 58.7943C408.623 58.3052 421.363 60.5858 432.192 65.5963L433.032 63.7811C421.863 58.6135 408.801 56.2982 393.876 56.7954L393.942 58.7943ZM432.195 65.5975C443.116 70.6109 451.552 77.7759 457.537 87.0887L459.22 86.0073C453.011 76.347 444.269 68.9392 433.029 63.7799L432.195 65.5975ZM457.541 87.0939C463.614 96.4159 466.852 106.957 467.244 118.741L469.243 118.675C468.839 106.547 465.5 95.6476 459.216 86.0021L457.541 87.0939ZM416.546 120.675C416.26 112.076 414.398 105.498 410.803 101.113C407.168 96.6779 401.887 94.6355 395.144 94.8602L395.21 96.8591C401.481 96.6502 406.102 98.5324 409.256 102.381C412.451 106.278 414.268 112.341 414.547 120.741L416.546 120.675ZM395.144 94.8602C388.383 95.0854 383.251 97.5894 379.932 102.464C376.655 107.279 375.247 114.264 375.547 123.262L377.546 123.195C377.252 114.381 378.653 107.898 381.586 103.59C384.477 99.3417 388.957 97.0674 395.21 96.8591L395.144 94.8602ZM375.547 123.262C375.863 132.742 377.762 139.976 381.393 144.802C385.071 149.691 390.425 151.981 397.283 151.752L397.217 149.753C390.899 149.964 386.214 147.885 382.991 143.6C379.72 139.251 377.856 132.503 377.546 123.195L375.547 123.262ZM397.283 151.752C404.007 151.528 409.072 148.767 412.316 143.441C415.515 138.189 416.875 130.553 416.546 120.675L414.547 120.741C414.871 130.465 413.509 137.637 410.608 142.4C407.753 147.088 403.344 149.549 397.217 149.753L397.283 151.752ZM570.806 180.024L569.807 180.058L569.84 181.057L570.839 181.024L570.806 180.024ZM569.184 131.345L570.184 131.312L570.151 130.313L569.151 130.346L569.184 131.345ZM540.148 132.313L540.114 131.313L539.115 131.347L539.148 132.346L540.148 132.313ZM541.769 180.992L541.803 181.991L542.802 181.958L542.769 180.958L541.769 180.992ZM489.796 182.723L488.797 182.756L488.83 183.756L489.83 183.723L489.796 182.723ZM485.634 57.7925L485.601 56.7931L484.602 56.8264L484.635 57.8258L485.634 57.7925ZM537.608 56.0611L538.607 56.0278L538.574 55.0283L537.574 55.0616L537.608 56.0611ZM539.022 98.518L538.022 98.5513L538.056 99.5507L539.055 99.5174L539.022 98.518ZM568.059 97.5507L568.092 98.5501L569.091 98.5168L569.058 97.5174L568.059 97.5507ZM566.644 55.0937L566.611 54.0943L565.611 54.1276L565.645 55.127L566.644 55.0937ZM618.617 53.3623L619.617 53.329L619.583 52.3296L618.584 52.3629L618.617 53.3623ZM622.779 178.293L622.813 179.292L623.812 179.259L623.779 178.26L622.779 178.293ZM571.806 179.991L570.184 131.312L568.185 131.379L569.807 180.058L571.806 179.991ZM569.151 130.346L540.114 131.313L540.181 133.312L569.218 132.345L569.151 130.346ZM539.148 132.346L540.77 181.025L542.769 180.958L541.147 132.279L539.148 132.346ZM541.736 179.992L489.763 181.724L489.83 183.723L541.803 181.991L541.736 179.992ZM490.796 182.69L486.634 57.7592L484.635 57.8258L488.797 182.756L490.796 182.69ZM485.668 58.792L537.641 57.0605L537.574 55.0616L485.601 56.7931L485.668 58.792ZM536.608 56.0944L538.022 98.5513L540.021 98.4847L538.607 56.0278L536.608 56.0944ZM539.055 99.5174L568.092 98.5501L568.025 96.5512L538.989 97.5185L539.055 99.5174ZM569.058 97.5174L567.644 55.0604L565.645 55.127L567.059 97.584L569.058 97.5174ZM566.677 56.0932L618.651 54.3618L618.584 52.3629L566.611 54.0943L566.677 56.0932ZM617.618 53.3956L621.78 178.326L623.779 178.26L619.617 53.329L617.618 53.3956ZM622.746 177.294L570.773 179.025L570.839 181.024L622.813 179.292L622.746 177.294Z" fill="white" fill-opacity="0.15"/>
</svg>
