<svg width="405" height="251" viewBox="0 0 405 251" fill="none" xmlns="http://www.w3.org/2000/svg">
<path d="M107.096 201.672L106.097 201.706L106.13 202.705L107.129 202.672L107.096 201.672ZM104.991 138.475L105.99 138.442L105.957 137.442L104.957 137.476L104.991 138.475ZM74.8108 163.786L75.7857 164.008L75.7862 164.006L74.8108 163.786ZM65.8591 203.046L65.8924 204.046L66.6627 204.02L66.8341 203.268L65.8591 203.046ZM6.3218 205.03L5.36152 204.751L4.97665 206.075L6.3551 206.029L6.3218 205.03ZM19.6901 159.027L20.6504 159.306L20.6519 159.301L19.6901 159.027ZM31.415 137.018L30.6847 136.335L30.6797 136.34L31.415 137.018ZM53.3147 123.464L53.6525 124.405L54.3384 124.159L54.3141 123.43L53.3147 123.464ZM53.2984 122.976L54.2979 122.942L54.2718 122.158L53.504 121.997L53.2984 122.976ZM31.917 42.0998L32.5135 42.9023L32.5146 42.9015L31.917 42.0998ZM153.973 24.9648L154.972 24.9315L154.939 23.9321L153.939 23.9654L153.973 24.9648ZM159.801 199.917L159.834 200.916L160.834 200.883L160.801 199.883L159.801 199.917ZM102.519 64.2974L103.519 64.2641L103.486 63.2647L102.486 63.298L102.519 64.2974ZM76.1993 69.8155L76.8282 70.5931L76.8306 70.5911L76.1993 69.8155ZM77.6059 97.3719L76.9759 98.1485L76.9837 98.1548L76.9916 98.161L77.6059 97.3719ZM103.775 101.996L103.809 102.996L104.808 102.962L104.775 101.963L103.775 101.996ZM108.095 201.639L105.99 138.442L103.991 138.508L106.097 201.706L108.095 201.639ZM104.957 137.476L100.809 137.614L100.876 139.613L105.024 139.474L104.957 137.476ZM100.809 137.614C93.7646 137.848 87.9319 140.138 83.3912 144.529C78.8683 148.903 75.7074 155.283 73.8354 163.565L75.7862 164.006C77.6044 155.962 80.6272 149.984 84.7815 145.967C88.9181 141.967 94.2562 139.833 100.876 139.613L100.809 137.614ZM73.8358 163.564L64.8841 202.824L66.8341 203.268L75.7857 164.008L73.8358 163.564ZM65.8258 202.047L6.2885 204.03L6.3551 206.029L65.8924 204.046L65.8258 202.047ZM7.28208 205.309L20.6504 159.306L18.7298 158.748L5.36152 204.751L7.28208 205.309ZM20.6519 159.301C23.1689 150.461 27.0102 143.272 32.1503 137.695L30.6797 136.34C25.2893 142.188 21.3141 149.672 18.7283 158.753L20.6519 159.301ZM32.1452 137.701C37.359 132.128 44.5112 127.686 53.6525 124.405L52.9769 122.522C43.6116 125.884 36.164 130.478 30.6847 136.335L32.1452 137.701ZM54.3141 123.43L54.2979 122.942L52.299 123.009L52.3152 123.497L54.3141 123.43ZM53.504 121.997C41.0995 119.391 31.8078 114.545 25.52 107.533C19.2397 100.529 15.8684 91.267 15.4816 79.6551L13.4827 79.7217C13.8816 91.697 17.3726 101.443 24.031 108.868C30.682 116.285 40.4056 121.289 53.0928 123.954L53.504 121.997ZM15.4816 79.6551C14.9579 63.9373 20.6374 51.7296 32.5135 42.9023L31.3205 41.2972C18.8824 50.5421 12.9387 63.3935 13.4827 79.7217L15.4816 79.6551ZM32.5146 42.9015C44.5149 33.9569 62.6355 29.0082 87.0266 28.1956L86.96 26.1967C62.3874 27.0153 43.7905 32.0024 31.3194 41.298L32.5146 42.9015ZM87.0266 28.1956L154.006 25.9643L153.939 23.9654L86.96 26.1967L87.0266 28.1956ZM152.973 24.9981L158.802 199.95L160.801 199.883L154.972 24.9315L152.973 24.9981ZM159.768 198.917L107.063 200.673L107.129 202.672L159.834 200.916L159.768 198.917ZM102.486 63.298L93.58 63.5947L93.6466 65.5936L102.553 65.2969L102.486 63.298ZM93.58 63.5947C85.8194 63.8532 79.7671 65.6223 75.5681 69.0399L76.8306 70.5911C80.5591 67.5563 86.1161 65.8445 93.6466 65.5936L93.58 63.5947ZM75.5705 69.038C71.3975 72.4129 69.4613 77.2379 69.6648 83.3463L71.6637 83.2797C71.477 77.6758 73.2308 73.5025 76.8282 70.5931L75.5705 69.038ZM69.6648 83.3463C69.8667 89.4068 72.3125 94.3657 76.9759 98.1485L78.2359 96.5952C74.0285 93.1824 71.8465 88.7688 71.6637 83.2797L69.6648 83.3463ZM76.9916 98.161C81.733 101.852 87.8157 103.528 95.1465 103.284L95.0799 101.285C88.0956 101.518 82.5068 99.9195 78.2201 96.5827L76.9916 98.161ZM95.1465 103.284L103.809 102.996L103.742 100.997L95.0799 101.285L95.1465 103.284ZM104.775 101.963L103.519 64.2641L101.52 64.3307L102.776 102.03L104.775 101.963ZM270.579 196.226L269.58 196.259L269.613 197.259L270.613 197.226L270.579 196.226ZM268.958 147.547L269.957 147.514L269.924 146.514L268.925 146.548L268.958 147.547ZM239.921 148.514L239.888 147.515L238.888 147.548L238.922 148.548L239.921 148.514ZM241.543 197.193L241.576 198.193L242.576 198.16L242.542 197.16L241.543 197.193ZM189.57 198.925L188.57 198.958L188.604 199.958L189.603 199.924L189.57 198.925ZM185.408 73.9942L185.375 72.9947L184.375 73.028L184.408 74.0275L185.408 73.9942ZM237.381 72.2627L238.38 72.2294L238.347 71.23L237.348 71.2633L237.381 72.2627ZM238.795 114.72L237.796 114.753L237.829 115.752L238.829 115.719L238.795 114.72ZM267.832 113.752L267.865 114.752L268.865 114.718L268.831 113.719L267.832 113.752ZM266.418 71.2954L266.384 70.296L265.385 70.3293L265.418 71.3287L266.418 71.2954ZM318.391 69.564L319.39 69.5307L319.357 68.5312L318.357 68.5645L318.391 69.564ZM322.553 194.495L322.586 195.494L323.585 195.461L323.552 194.461L322.553 194.495ZM271.579 196.193L269.957 147.514L267.958 147.58L269.58 196.259L271.579 196.193ZM268.925 146.548L239.888 147.515L239.954 149.514L268.991 148.546L268.925 146.548ZM238.922 148.548L240.543 197.227L242.542 197.16L240.921 148.481L238.922 148.548ZM241.51 196.194L189.536 197.925L189.603 199.924L241.576 198.193L241.51 196.194ZM190.569 198.892L186.407 73.9609L184.408 74.0275L188.57 198.958L190.569 198.892ZM185.441 74.9936L237.414 73.2622L237.348 71.2633L185.375 72.9947L185.441 74.9936ZM236.381 72.296L237.796 114.753L239.795 114.686L238.38 72.2294L236.381 72.296ZM238.829 115.719L267.865 114.752L267.799 112.753L238.762 113.72L238.829 115.719ZM268.831 113.719L267.417 71.2621L265.418 71.3287L266.833 113.786L268.831 113.719ZM266.451 72.2949L318.424 70.5634L318.357 68.5645L266.384 70.296L266.451 72.2949ZM317.391 69.5973L321.553 194.528L323.552 194.461L319.39 69.5307L317.391 69.5973ZM322.519 193.495L270.546 195.227L270.613 197.226L322.586 195.494L322.519 193.495ZM459.37 235.494L458.37 235.528L458.403 236.527L459.403 236.494L459.37 235.494ZM457.854 189.987L458.853 189.954L458.82 188.954L457.82 188.988L457.854 189.987ZM379.65 192.593L379.617 191.593L378.617 191.626L378.65 192.626L379.65 192.593ZM381.166 238.1L381.199 239.099L382.199 239.066L382.165 238.066L381.166 238.1ZM340.295 239.461L339.296 239.494L339.329 240.494L340.328 240.461L340.295 239.461ZM337.612 158.939L337.579 157.94L336.58 157.973L336.613 158.973L337.612 158.939ZM348.349 158.582L348.382 159.581L348.961 159.562L349.232 159.05L348.349 158.582ZM364.621 115.413L363.647 115.185L363.646 115.19L364.621 115.413ZM370.12 67.8407L370.086 66.8412L369.133 66.873L369.12 67.8264L370.12 67.8407ZM474.798 64.3534L475.797 64.3201L475.764 63.3207L474.765 63.354L474.798 64.3534ZM477.794 154.269L476.794 154.303L476.827 155.302L477.827 155.269L477.794 154.269ZM498.29 153.587L499.289 153.553L499.256 152.554L498.257 152.587L498.29 153.587ZM500.972 234.108L501.006 235.108L502.005 235.074L501.972 234.075L500.972 234.108ZM424.191 99.7494L425.19 99.7161L425.157 98.7167L424.157 98.75L424.191 99.7494ZM409.916 100.225L409.883 99.2255L408.953 99.2565L408.917 100.186L409.916 100.225ZM396.54 156.976L395.633 156.556L394.949 158.03L396.573 157.976L396.54 156.976ZM426.064 155.993L426.098 156.992L427.097 156.959L427.064 155.959L426.064 155.993ZM460.369 235.461L458.853 189.954L456.854 190.021L458.37 235.528L460.369 235.461ZM457.82 188.988L379.617 191.593L379.683 193.592L457.887 190.987L457.82 188.988ZM378.65 192.626L380.166 238.133L382.165 238.066L380.649 192.559L378.65 192.626ZM381.133 237.1L340.262 238.462L340.328 240.461L381.199 239.099L381.133 237.1ZM341.294 239.428L338.612 158.906L336.613 158.973L339.296 239.494L341.294 239.428ZM337.646 159.939L348.382 159.581L348.315 157.582L337.579 157.94L337.646 159.939ZM349.232 159.05C356.778 144.804 362.234 130.333 365.595 115.636L363.646 115.19C360.326 129.704 354.934 144.012 347.465 158.114L349.232 159.05ZM365.594 115.641C369.035 100.955 370.874 85.0246 371.12 67.8549L369.12 67.8264C368.876 84.8717 367.05 100.657 363.647 115.185L365.594 115.641ZM370.153 68.8401L474.831 65.3528L474.765 63.354L370.086 66.8412L370.153 68.8401ZM473.799 64.3867L476.794 154.303L478.793 154.236L475.797 64.3201L473.799 64.3867ZM477.827 155.269L498.323 154.586L498.257 152.587L477.76 153.27L477.827 155.269ZM497.291 153.62L499.973 234.142L501.972 234.075L499.289 153.553L497.291 153.62ZM500.939 233.109L459.336 234.495L459.403 236.494L501.006 235.108L500.939 233.109ZM424.157 98.75L409.883 99.2255L409.95 101.224L424.224 100.749L424.157 98.75ZM408.917 100.186C408.133 120.362 403.702 139.149 395.633 156.556L397.447 157.397C405.634 139.738 410.121 120.69 410.916 100.264L408.917 100.186ZM396.573 157.976L426.098 156.992L426.031 154.993L396.506 155.977L396.573 157.976ZM427.064 155.959L425.19 99.7161L423.191 99.7827L425.065 156.026L427.064 155.959ZM558.747 138.87L558.713 137.871L557.533 137.91L557.766 139.067L558.747 138.87ZM568.441 151.249L567.966 152.129L567.976 152.135L568.441 151.249ZM623.749 146.964L624.749 146.931L624.698 145.415L623.325 146.059L623.749 146.964ZM624.847 179.905L625.249 180.82L625.869 180.548L625.846 179.872L624.847 179.905ZM514.831 92.8214L513.93 92.3872L513.927 92.3928L514.831 92.8214ZM537.698 67.9984L538.212 68.8563L538.215 68.8549L537.698 67.9984ZM605.491 64.5186L605.943 63.6263L605.491 64.5186ZM627.061 85.052L626.189 85.5412L626.192 85.5473L627.061 85.052ZM635.974 136.297L636.008 137.297L637.007 137.263L636.974 136.264L635.974 136.297ZM589.073 110.623L589.106 111.622L590.106 111.589L590.072 110.59L589.073 110.623ZM562.2 95.8846L563.02 96.4577L563.025 96.4495L562.2 95.8846ZM557.596 111.672L556.597 111.63L556.552 112.707L557.629 112.671L557.596 111.672ZM557.766 139.067C558.906 144.735 562.352 149.093 567.966 152.129L568.917 150.37C563.752 147.577 560.734 143.681 559.727 138.673L557.766 139.067ZM567.976 152.135C573.569 155.076 580.804 156.357 589.61 156.064L589.543 154.065C580.943 154.352 574.088 153.09 568.907 150.364L567.976 152.135ZM589.61 156.064C601.86 155.656 613.384 152.925 624.174 147.87L623.325 146.059C612.788 150.996 601.531 153.666 589.543 154.065L589.61 156.064ZM622.75 146.997L623.847 179.938L625.846 179.872L624.749 146.931L622.75 146.997ZM624.445 178.989C612.153 184.387 597.079 187.402 579.192 187.998L579.259 189.997C597.322 189.395 612.662 186.348 625.249 180.82L624.445 178.989ZM579.192 187.998C557.562 188.718 540.691 183.748 528.446 173.22L527.142 174.736C539.877 185.686 557.294 190.728 579.259 189.997L579.192 187.998ZM528.446 173.22C516.207 162.697 509.725 147.852 509.083 128.555L507.084 128.622C507.741 148.365 514.4 163.781 527.142 174.736L528.446 173.22ZM509.083 128.555C508.64 115.268 510.867 103.508 515.734 93.25L513.927 92.3928C508.903 102.983 506.632 115.068 507.084 128.622L509.083 128.555ZM515.731 93.2557C520.671 83.0099 528.156 74.8806 538.212 68.8563L537.185 67.1406C526.804 73.3595 519.044 81.7788 513.93 92.3872L515.731 93.2557ZM538.215 68.8549C548.358 62.7417 559.643 59.474 572.088 59.0594L572.021 57.0605C559.253 57.4859 547.633 60.8438 537.182 67.1419L538.215 68.8549ZM572.088 59.0594C584.891 58.6329 595.862 60.7659 605.04 65.4108L605.943 63.6263C596.403 58.798 585.083 56.6254 572.021 57.0605L572.088 59.0594ZM605.04 65.4108C614.226 70.0599 621.267 76.7659 626.189 85.5412L627.933 84.5629C622.813 75.4334 615.475 68.4505 605.943 63.6263L605.04 65.4108ZM626.192 85.5473C631.2 94.332 633.922 104.742 634.324 116.81L636.323 116.744C635.913 104.411 633.126 93.6714 627.93 84.5568L626.192 85.5473ZM634.324 116.81L634.975 136.331L636.974 136.264L636.323 116.744L634.324 116.81ZM635.941 135.298L558.713 137.871L558.78 139.87L636.008 137.297L635.941 135.298ZM590.072 110.59C589.83 103.302 588.34 97.7 585.452 93.9465C582.519 90.1332 578.252 88.3645 572.826 88.5453L572.892 90.5442C577.796 90.3808 581.396 91.9532 583.867 95.1659C586.384 98.4385 587.837 103.548 588.073 110.656L590.072 110.59ZM572.826 88.5453C568.147 88.7012 564.32 91.0184 561.375 95.3197L563.025 96.4495C565.671 92.5849 568.95 90.6755 572.892 90.5442L572.826 88.5453ZM561.381 95.3116C558.442 99.5141 556.874 104.979 556.597 111.63L558.595 111.713C558.861 105.318 560.362 100.258 563.02 96.4576L561.381 95.3116ZM557.629 112.671L589.106 111.622L589.04 109.624L557.563 110.672L557.629 112.671ZM735.898 180.724L734.994 181.152L735.275 181.746L735.931 181.724L735.898 180.724ZM705.943 117.478L706.847 117.05L706.566 116.456L705.91 116.478L705.943 117.478ZM705.455 117.494L705.422 116.495L704.422 116.528L704.456 117.527L705.455 117.494ZM707.593 181.667L707.626 182.667L708.626 182.634L708.592 181.634L707.593 181.667ZM655.62 183.399L654.62 183.432L654.654 184.432L655.653 184.398L655.62 183.399ZM651.458 58.4681L651.425 57.4687L650.425 57.502L650.458 58.5014L651.458 58.4681ZM703.431 56.7367L704.43 56.7034L704.397 55.704L703.398 55.7373L703.431 56.7367ZM705.386 115.42L704.387 115.453L704.42 116.453L705.419 116.419L705.386 115.42ZM705.874 115.404L705.907 116.403L706.565 116.381L706.805 115.768L705.874 115.404ZM729.174 55.8791L729.14 54.8797L728.482 54.9016L728.242 55.5146L729.174 55.8791ZM787.735 53.9282L788.612 54.4078L789.453 52.8704L787.701 52.9287L787.735 53.9282ZM755.846 112.273L754.969 111.794L754.701 112.284L754.978 112.769L755.846 112.273ZM793.849 178.794L793.882 179.793L795.54 179.738L794.717 178.298L793.849 178.794ZM736.801 180.296L706.847 117.05L705.039 117.906L734.994 181.152L736.801 180.296ZM705.91 116.478L705.422 116.495L705.488 118.493L705.976 118.477L705.91 116.478ZM704.456 117.527L706.593 181.701L708.592 181.634L706.454 117.461L704.456 117.527ZM707.56 180.668L655.587 182.399L655.653 184.398L707.626 182.667L707.56 180.668ZM656.619 183.366L652.457 58.4348L650.458 58.5014L654.62 183.432L656.619 183.366ZM651.491 59.4676L703.464 57.7361L703.398 55.7373L651.425 57.4687L651.491 59.4676ZM702.432 56.77L704.387 115.453L706.385 115.387L704.43 56.7034L702.432 56.77ZM705.419 116.419L705.907 116.403L705.841 114.404L705.353 114.421L705.419 116.419ZM706.805 115.768L730.105 56.2436L728.242 55.5146L704.943 115.039L706.805 115.768ZM729.207 56.8786L787.768 54.9276L787.701 52.9287L729.14 54.8797L729.207 56.8786ZM786.857 53.4486L754.969 111.794L756.724 112.753L788.612 54.4078L786.857 53.4486ZM754.978 112.769L792.98 179.29L794.717 178.298L756.715 111.777L754.978 112.769ZM793.815 177.794L735.864 179.725L735.931 181.724L793.882 179.793L793.815 177.794ZM906.583 171.496L907.117 172.342L907.602 172.036L907.583 171.463L906.583 171.496ZM830.653 172.682L830.222 173.584L830.23 173.588L830.653 172.682ZM804.058 81.9647L803.182 81.4821L803.181 81.4842L804.058 81.9647ZM829.264 57.6745L829.726 58.5618L829.731 58.559L829.264 57.6745ZM889.924 49.0582L889.795 50.0498L889.797 50.05L889.924 49.0582ZM902.612 52.2996L903.612 52.2663L903.595 51.7622L903.18 51.4761L902.612 52.2996ZM903.962 92.8045L903.373 93.6126L905.03 94.8203L904.961 92.7712L903.962 92.8045ZM856.003 94.0358L856.704 94.7481L856.705 94.7476L856.003 94.0358ZM857.23 134.545L856.571 135.297L856.577 135.302L856.583 135.308L857.23 134.545ZM905.303 133.065L906.303 133.032L906.245 131.312L904.779 132.214L905.303 133.065ZM906.05 170.65C902.936 172.615 897.887 174.347 890.803 175.799L891.204 177.758C898.354 176.293 903.691 174.503 907.117 172.342L906.05 170.65ZM890.803 175.799C883.754 177.243 875.577 178.124 866.265 178.434L866.331 180.433C875.726 180.12 884.019 179.231 891.204 177.758L890.803 175.799ZM866.265 178.434C853.225 178.869 841.503 176.641 831.076 171.776L830.23 173.588C840.977 178.603 853.018 180.877 866.331 180.433L866.265 178.434ZM831.084 171.78C820.737 166.833 812.621 159.74 806.713 150.496L805.028 151.573C811.146 161.145 819.553 168.484 830.222 173.584L831.084 171.78ZM806.713 150.496C800.804 141.25 797.646 130.745 797.253 118.955L795.254 119.022C795.658 131.144 798.911 142.003 805.028 151.573L806.713 150.496ZM797.253 118.955C796.781 104.781 799.358 92.6252 804.935 82.4452L803.181 81.4842C797.398 92.039 794.772 104.565 795.254 119.022L797.253 118.955ZM804.934 82.4473C810.593 72.1764 818.847 64.2169 829.726 58.5617L828.803 56.7872C817.591 62.6161 809.041 70.8501 803.182 81.4821L804.934 82.4473ZM829.731 58.559C840.617 52.8182 853.386 49.6882 868.066 49.1991L868 47.2002C853.073 47.6975 839.997 50.884 828.798 56.7899L829.731 58.559ZM868.066 49.1991C876.158 48.9296 883.399 49.215 889.795 50.0498L890.054 48.0666C883.528 47.2148 876.175 46.9279 868 47.2002L868.066 49.1991ZM889.797 50.05C893.046 50.4675 895.695 50.9414 897.755 51.4679C899.838 51.9999 901.235 52.5652 902.045 53.1232L903.18 51.4761C902.073 50.7137 900.397 50.0786 898.25 49.5301C896.082 48.9761 893.345 48.4895 890.052 48.0663L889.797 50.05ZM901.613 52.3329L902.962 92.8378L904.961 92.7712L903.612 52.2663L901.613 52.3329ZM904.551 91.9964C901.746 89.9519 897.819 88.2467 892.829 86.8475L892.289 88.7732C897.162 90.1395 900.836 91.7638 903.373 93.6126L904.551 91.9964ZM892.829 86.8475C887.821 85.4432 883.177 84.8017 878.906 84.944L878.973 86.9429C882.998 86.8088 887.434 87.4118 892.289 88.7732L892.829 86.8475ZM878.906 84.944C868.592 85.2876 860.666 88.0298 855.3 93.324L856.705 94.7476C861.588 89.9294 868.953 87.2766 878.973 86.9429L878.906 84.944ZM855.301 93.3235C850.01 98.5373 847.574 105.712 847.874 114.704L849.873 114.637C849.587 106.06 851.904 99.4787 856.704 94.7481L855.301 93.3235ZM847.874 114.704C848.168 123.534 851.033 130.446 856.571 135.297L857.889 133.792C852.859 129.387 850.153 123.05 849.873 114.637L847.874 114.704ZM856.583 135.308C862.185 140.054 869.646 142.216 878.849 141.909L878.783 139.91C869.93 140.205 863.001 138.124 857.876 133.782L856.583 135.308ZM878.849 141.909C888.696 141.581 897.695 138.918 905.827 133.917L904.779 132.214C896.953 137.026 888.294 139.593 878.783 139.91L878.849 141.909ZM904.304 133.099L905.584 171.529L907.583 171.463L906.303 133.032L904.304 133.099Z" fill="white" fill-opacity="0.15"/>
</svg>
