<svg width="22" height="23" viewBox="0 0 22 23" fill="none" xmlns="http://www.w3.org/2000/svg">
<path d="M17.4061 16.7438L21.6541 12.3559C21.7638 12.2428 21.8508 12.1085 21.9102 11.9607C21.9695 11.8128 22.0001 11.6543 22.0001 11.4942C22.0001 11.3341 21.9695 11.1756 21.9102 11.0278C21.8508 10.8799 21.7638 10.7456 21.6541 10.6325L17.4061 6.24462C17.1848 6.01608 16.8847 5.8877 16.5718 5.8877C16.2589 5.8877 15.9589 6.01608 15.7376 6.24462C15.5164 6.47315 15.3921 6.78311 15.3921 7.10631C15.3921 7.42951 15.5164 7.73947 15.7376 7.968L17.9504 10.2781H8.2829C7.63209 10.2781 7.09961 10.8281 7.09961 11.5003C7.09961 12.1726 7.63209 12.7226 8.2829 12.7226H17.9504L15.7258 15.0204C15.6161 15.1335 15.5291 15.2678 15.4697 15.4157C15.4103 15.5635 15.3797 15.722 15.3797 15.8821C15.3797 16.0422 15.4103 16.2007 15.4697 16.3486C15.5291 16.4964 15.6161 16.6307 15.7258 16.7438C16.1873 17.2205 16.9446 17.2205 17.4061 16.7438Z" fill="white"/>
<path d="M18.9326 20.0561H2.36658V2.94452H18.9326V4.16677C18.9326 4.83902 19.4651 5.38903 20.1159 5.38903C20.7667 5.38903 21.2992 4.83902 21.2992 4.16677V2.94452C21.2992 1.60003 20.2342 0.5 18.9326 0.5H2.36658C1.06496 0.5 0 1.60003 0 2.94452V20.0561C0 21.4006 1.06496 22.5006 2.36658 22.5006H18.9326C19.5603 22.5006 20.1622 22.2431 20.606 21.7847C21.0499 21.3262 21.2992 20.7045 21.2992 20.0561V18.8339C21.2992 18.1616 20.7667 17.6116 20.1159 17.6116C19.4651 17.6116 18.9326 18.1616 18.9326 18.8339V20.0561Z" fill="white"/>
</svg>
