<svg width="120" height="120" viewBox="0 0 120 120" fill="none" xmlns="http://www.w3.org/2000/svg">
<circle cx="60" cy="60" r="60" fill="url(#paint0_linear_0_5112)"/>
<path d="M92.0115 53.9756C90.574 53.0873 88.9738 52.9065 87.5625 53.0454V51.5625C87.5625 36.4033 75.1574 24 60 24C44.8408 24 32.4375 36.4051 32.4375 51.5625V53.0454C31.0262 52.9063 29.4259 53.0873 27.9885 53.9756C25.3418 55.6114 24 59.0577 24 64.2188C24 69.3884 25.3444 72.853 27.9959 74.5164C29.313 75.3428 30.8511 75.6298 32.4375 75.4934V77.0156C32.4375 78.1806 33.3819 79.125 34.5469 79.125H42.9844C44.1493 79.125 45.0938 78.1806 45.0938 77.0156V51.5625C45.0938 50.3976 44.1493 49.4531 42.9844 49.4531H36.7526C37.8225 37.5662 47.8393 28.2188 60 28.2188C72.1607 28.2188 82.1775 37.5662 83.2474 49.4531H77.0156C75.8507 49.4531 74.9062 50.3976 74.9062 51.5625V77.0156C74.9062 78.1806 75.8507 79.125 77.0156 79.125H83.3438V81.2344C83.3438 84.7237 80.505 87.5625 77.0156 87.5625H70.1841C69.3133 85.1075 66.9687 83.3438 64.2188 83.3438H60C56.5107 83.3438 53.6719 86.1825 53.6719 89.6719C53.6719 93.1612 56.5107 96 60 96H64.2188C66.9687 96 69.3133 94.2363 70.1841 91.7812H77.0156C82.8312 91.7812 87.5625 87.0499 87.5625 81.2344C87.5625 78.665 87.5625 77.1606 87.5625 75.4932C89.149 75.6296 90.6873 75.3425 92.0041 74.5163C94.6556 72.853 96 69.3884 96 64.2188C96 59.0577 94.6582 55.6114 92.0115 53.9756ZM32.4375 71.2473C31.7645 71.3645 30.9233 71.3726 30.2378 70.9426C28.9358 70.1258 28.2188 67.7379 28.2188 64.2188C28.2188 60.7334 28.9198 58.3731 30.1926 57.573C30.8808 57.1403 31.7479 57.171 32.4375 57.3072V71.2473ZM40.875 53.6719V74.9062H36.6562V53.6719H40.875ZM64.2188 91.7812H60C58.8369 91.7812 57.8906 90.835 57.8906 89.6719C57.8906 88.5088 58.8369 87.5625 60 87.5625H64.2188C65.3819 87.5625 66.3281 88.5088 66.3281 89.6719C66.3281 90.835 65.3819 91.7812 64.2188 91.7812ZM83.3438 74.9062H79.125V53.6719H83.3438V74.9062ZM89.7772 70.9332C89.0955 71.3684 88.2449 71.36 87.5625 71.2417V57.3073C88.2521 57.1712 89.1191 57.1404 89.8074 57.5731C91.0802 58.3731 91.7812 60.7334 91.7812 64.2188C91.7812 67.7235 91.0694 70.1081 89.7772 70.9332Z" fill="white"/>
<defs>
<linearGradient id="paint0_linear_0_5112" x1="3.24324" y1="16.0714" x2="127.259" y2="24.1522" gradientUnits="userSpaceOnUse">
<stop stop-color="#AF2EFF"/>
<stop offset="1" stop-color="#D517AB"/>
</linearGradient>
</defs>
</svg>
