<svg width="48" height="48" viewBox="0 0 48 48" fill="none" xmlns="http://www.w3.org/2000/svg">
<circle cx="24" cy="24" r="24" fill="#E9E9E9"/>
<path d="M33.1875 17.6719V13.4531H14.8125C13.2617 13.4531 12 14.7148 12 16.2656V31.0312C12 32.9698 13.5771 34.5469 15.5156 34.5469H36V17.6719H33.1875ZM14.8125 14.8594H31.7812V17.6719H14.8125C14.0371 17.6719 13.4062 17.041 13.4062 16.2656C13.4062 15.4902 14.0371 14.8594 14.8125 14.8594ZM34.5938 28.9219H31.0781C29.915 28.9219 28.9688 27.9756 28.9688 26.8125C28.9688 25.6494 29.915 24.7031 31.0781 24.7031H34.5938V28.9219ZM34.5938 23.2969H31.0781C29.1396 23.2969 27.5625 24.874 27.5625 26.8125C27.5625 28.751 29.1396 30.3281 31.0781 30.3281H34.5938V33.1406H15.5156C14.3525 33.1406 13.4062 32.1944 13.4062 31.0312V18.6997C13.8203 18.9399 14.3004 19.0781 14.8125 19.0781C15.8413 19.0781 33.0763 19.0781 34.5938 19.0781V23.2969Z" fill="black"/>
<path d="M31.7812 26.1094H30.375V27.5156H31.7812V26.1094Z" fill="black"/>
</svg>
