<svg width="50" height="50" viewBox="0 0 50 50" fill="none" xmlns="http://www.w3.org/2000/svg">
<circle cx="25" cy="25" r="25" fill="white"/>
<path d="M29.3343 29.6353L31.3148 27.7401C31.5816 27.488 31.9191 27.3154 32.2863 27.2433C32.6536 27.1712 33.0349 27.2027 33.3838 27.334L35.7975 28.2562C36.1501 28.3931 36.4525 28.6269 36.6665 28.928C36.8805 29.2292 36.9965 29.5842 37 29.9483V34.1786C36.9979 34.4263 36.9435 34.6711 36.84 34.8981C36.7365 35.1252 36.5861 35.3298 36.3977 35.4998C36.2094 35.6697 35.9871 35.8015 35.7441 35.887C35.5012 35.9726 35.2426 36.0102 34.9841 35.9976C18.0701 34.9908 14.6572 21.2846 14.0118 16.039C13.9818 15.7814 14.0092 15.5207 14.0921 15.274C14.175 15.0272 14.3116 14.8001 14.4928 14.6075C14.6741 14.4148 14.8959 14.2611 15.1436 14.1564C15.3914 14.0517 15.6596 13.9984 15.9304 14H20.2009C20.582 14.0011 20.954 14.1113 21.2692 14.3163C21.5843 14.5214 21.8281 14.8119 21.9692 15.1507L22.933 17.4604C23.0747 17.793 23.1108 18.1581 23.0369 18.5102C22.963 18.8623 22.7823 19.1858 22.5174 19.4402L20.5369 21.3354C20.5369 21.3354 21.6775 28.7215 29.3343 29.6353Z" fill="url(#paint0_linear_0_101)"/>
<defs>
<linearGradient id="paint0_linear_0_101" x1="14.6216" y1="16.9464" x2="38.382" y2="18.565" gradientUnits="userSpaceOnUse">
<stop stop-color="#AF2EFF"/>
<stop offset="1" stop-color="#D517AB"/>
</linearGradient>
</defs>
</svg>
