<svg width="50" height="50" viewBox="0 0 50 50" fill="none" xmlns="http://www.w3.org/2000/svg">
<circle cx="25" cy="25" r="25" fill="white"/>
<path d="M33.699 14.2031C33.699 14.2031 36.1965 13.2075 35.9876 15.6251C35.9188 16.6207 35.2946 20.1055 34.8086 23.8742L33.1436 35.039C33.1436 35.039 33.0048 36.6746 31.7557 36.9592C30.5073 37.2431 28.6341 35.9636 28.2869 35.6791C28.0092 35.4655 23.0837 32.2652 21.3493 30.7012C20.8633 30.2741 20.3079 29.4211 21.4187 28.4256L28.7028 21.314C29.5353 20.461 30.3678 18.4699 26.899 20.8875L17.1856 27.6429C17.1856 27.6429 16.0754 28.3546 13.9945 27.7145L9.48425 26.2918C9.48425 26.2918 7.81928 25.2253 10.6639 24.1587C17.6021 20.8165 26.1359 17.4033 33.6978 14.2031H33.699Z" fill="url(#paint0_linear_730_3778)"/>
<defs>
<linearGradient id="paint0_linear_730_3778" x1="9.72973" y1="17.0804" x2="37.5887" y2="19.2113" gradientUnits="userSpaceOnUse">
<stop stop-color="#AF2EFF"/>
<stop offset="1" stop-color="#D517AB"/>
</linearGradient>
</defs>
</svg>
