<svg width="23" height="26" viewBox="0 0 23 26" fill="none" xmlns="http://www.w3.org/2000/svg">
<path d="M7.03063 18.6893C6.69299 19.0283 6.69299 19.576 7.03063 19.915C7.36826 20.2541 7.91382 20.2541 8.25146 19.915L16.6551 11.4773C18.0573 10.0686 18.0573 7.77668 16.6551 6.36826C15.9756 5.68522 15.0718 5.30985 14.1107 5.30985C13.1498 5.30985 12.2458 5.68601 11.5664 6.36826L1.65503 16.3198C0.587971 17.3912 0 18.8155 0 20.3308C0 21.8461 0.587971 23.2704 1.65503 24.3408C2.75578 25.4468 4.20272 26 5.6498 26C7.09669 26 8.54377 25.447 9.64458 24.3408L20.7449 13.1954C22.1996 11.7348 23 9.79379 23 7.72829C23 5.66254 22.1989 3.72082 20.7449 2.26113C17.743 -0.75371 12.8563 -0.75371 9.85523 2.26113L0.263102 11.8922C-0.0745344 12.2312 -0.0745344 12.779 0.263102 13.118C0.600738 13.457 1.14629 13.457 1.48394 13.118L11.0761 3.4889C13.4046 1.1509 17.1955 1.1509 19.5241 3.4889C20.6525 4.62181 21.2732 6.12762 21.2732 7.73052C21.2732 9.33341 20.6515 10.8382 19.5241 11.9721L8.42384 23.1165C6.89486 24.6517 4.40578 24.6517 2.87616 23.1165C2.13535 22.3727 1.72701 21.3836 1.72701 20.3321C1.72701 19.2797 2.13537 18.2907 2.87616 17.5469L12.7875 7.59534C13.5179 6.86197 14.705 6.86197 15.4346 7.59534C16.1642 8.32791 16.1642 9.51986 15.4346 10.2522L7.03063 18.6893Z" fill="#1C1C1C"/>
</svg>
